<?xml version="1.0" encoding="UTF-8" standalone="no"?><svg xmlns="http://www.w3.org/2000/svg" xmlns:xlink="http://www.w3.org/1999/xlink" contentStyleType="text/css" height="228px" preserveAspectRatio="none" style="width:572px;height:228px;background:#FFFFFF;" version="1.1" viewBox="0 0 572 228" width="572px" zoomAndPan="magnify"><defs/><g><!--cluster org.firstinspires.ftc.teamcode--><g id="cluster_org.firstinspires.ftc.teamcode"><path d="M8.5,6 L245.5,6 A3.75,3.75 0 0 1 248,8.5 L255,28.2969 L562.5,28.2969 A2.5,2.5 0 0 1 565,30.7969 L565,200.5 A2.5,2.5 0 0 1 562.5,203 L8.5,203 A2.5,2.5 0 0 1 6,200.5 L6,8.5 A2.5,2.5 0 0 1 8.5,6 " fill="none" style="stroke:#000000;stroke-width:1.5;"/><line style="stroke:#000000;stroke-width:1.5;" x1="6" x2="255" y1="28.2969" y2="28.2969"/><text fill="#000000" font-family="sans-serif" font-size="14" font-weight="bold" lengthAdjust="spacing" textLength="236" x="10" y="20.9951">org.firstinspires.ftc.teamcode</text></g><!--class org.firstinspires.ftc.teamcode.RobotComponents--><a href="RobotComponents.html" target="_top" title="RobotComponents.html" xlink:actuate="onRequest" xlink:href="RobotComponents.html" xlink:show="new" xlink:title="RobotComponents.html" xlink:type="simple"><g id="elem_org.firstinspires.ftc.teamcode.RobotComponents"><rect codeLine="3" fill="#F1F1F1" height="145.7813" id="org.firstinspires.ftc.teamcode.RobotComponents" rx="2.5" ry="2.5" style="stroke:#181818;stroke-width:0.5;" width="252" x="297" y="41"/><ellipse cx="352.75" cy="57" fill="#ADD1B2" rx="11" ry="11" style="stroke:#181818;stroke-width:1.0;"/><path d="M355.7188,62.6406 Q355.1406,62.9375 354.5,63.0781 Q353.8594,63.2344 353.1563,63.2344 Q350.6563,63.2344 349.3281,61.5938 Q348.0156,59.9375 348.0156,56.8125 Q348.0156,53.6875 349.3281,52.0313 Q350.6563,50.375 353.1563,50.375 Q353.8594,50.375 354.5,50.5313 Q355.1563,50.6875 355.7188,50.9844 L355.7188,53.7031 Q355.0938,53.125 354.5,52.8594 Q353.9063,52.5781 353.2813,52.5781 Q351.9375,52.5781 351.25,53.6563 Q350.5625,54.7188 350.5625,56.8125 Q350.5625,58.9063 351.25,59.9844 Q351.9375,61.0469 353.2813,61.0469 Q353.9063,61.0469 354.5,60.7813 Q355.0938,60.5 355.7188,59.9219 L355.7188,62.6406 Z " fill="#000000"/><text fill="#000000" font-family="sans-serif" font-size="14" lengthAdjust="spacing" textLength="132" x="373.25" y="61.8467">RobotComponents</text><line style="stroke:#181818;stroke-width:0.5;" x1="298" x2="548" y1="73" y2="73"/><line style="stroke:#181818;stroke-width:0.5;" x1="298" x2="548" y1="81" y2="81"/><ellipse cx="308" cy="94.6484" fill="#84BE84" rx="3" ry="3" style="stroke:#038048;stroke-width:1.0;"/><text fill="#000000" font-family="sans-serif" font-size="14" lengthAdjust="spacing" textLength="201" x="317" y="97.9951">getTicksPerDegree(): double</text><ellipse cx="308" cy="110.9453" fill="#84BE84" rx="3" ry="3" style="stroke:#038048;stroke-width:1.0;"/><text fill="#000000" font-family="sans-serif" font-size="14" lengthAdjust="spacing" textLength="135" x="317" y="114.292">getTarget(): double</text><ellipse cx="308" cy="127.2422" fill="#84BE84" rx="3" ry="3" style="stroke:#038048;stroke-width:1.0;"/><text fill="#000000" font-family="sans-serif" font-size="14" lengthAdjust="spacing" textLength="162" x="317" y="130.5889">setTarget(double): void</text><ellipse cx="308" cy="143.5391" fill="#84BE84" rx="3" ry="3" style="stroke:#038048;stroke-width:1.0;"/><text fill="#000000" font-family="sans-serif" font-size="14" lengthAdjust="spacing" textLength="210" x="317" y="146.8857">incrementTarget(double): void</text><ellipse cx="308" cy="159.8359" fill="#84BE84" rx="3" ry="3" style="stroke:#038048;stroke-width:1.0;"/><text fill="#000000" font-family="sans-serif" font-size="14" lengthAdjust="spacing" textLength="147" x="317" y="163.1826">moveUsingPID(): void</text><ellipse cx="308" cy="176.1328" fill="#84BE84" rx="3" ry="3" style="stroke:#038048;stroke-width:1.0;"/><text fill="#000000" font-family="sans-serif" font-size="14" lengthAdjust="spacing" textLength="226" x="317" y="179.4795">motorCloseEnough(int): boolean</text></g></a><!--class org.firstinspires.ftc.teamcode.HWC--><a href="HWC.html" target="_top" title="HWC.html" xlink:actuate="onRequest" xlink:href="HWC.html" xlink:show="new" xlink:title="HWC.html" xlink:type="simple"><g id="elem_org.firstinspires.ftc.teamcode.HWC"><rect codeLine="12" fill="#F1F1F1" height="129.4844" id="org.firstinspires.ftc.teamcode.HWC" rx="2.5" ry="2.5" style="stroke:#181818;stroke-width:0.5;" width="240" x="22" y="49.5"/><ellipse cx="121.25" cy="65.5" fill="#ADD1B2" rx="11" ry="11" style="stroke:#181818;stroke-width:1.0;"/><path d="M124.2188,71.1406 Q123.6406,71.4375 123,71.5781 Q122.3594,71.7344 121.6563,71.7344 Q119.1563,71.7344 117.8281,70.0938 Q116.5156,68.4375 116.5156,65.3125 Q116.5156,62.1875 117.8281,60.5313 Q119.1563,58.875 121.6563,58.875 Q122.3594,58.875 123,59.0313 Q123.6563,59.1875 124.2188,59.4844 L124.2188,62.2031 Q123.5938,61.625 123,61.3594 Q122.4063,61.0781 121.7813,61.0781 Q120.4375,61.0781 119.75,62.1563 Q119.0625,63.2188 119.0625,65.3125 Q119.0625,67.4063 119.75,68.4844 Q120.4375,69.5469 121.7813,69.5469 Q122.4063,69.5469 123,69.2813 Q123.5938,69 124.2188,68.4219 L124.2188,71.1406 Z " fill="#000000"/><text fill="#000000" font-family="sans-serif" font-size="14" lengthAdjust="spacing" textLength="33" x="141.75" y="70.3467">HWC</text><line style="stroke:#181818;stroke-width:0.5;" x1="23" x2="261" y1="81.5" y2="81.5"/><ellipse cx="33" cy="95.1484" fill="none" rx="3" ry="3" style="stroke:#038048;stroke-width:1.0;"/><text fill="#000000" font-family="sans-serif" font-size="14" lengthAdjust="spacing" textLength="141" x="42" y="98.4951">leftFront: DcMotorEx</text><ellipse cx="33" cy="111.4453" fill="none" rx="3" ry="3" style="stroke:#038048;stroke-width:1.0;"/><text fill="#000000" font-family="sans-serif" font-size="14" lengthAdjust="spacing" textLength="151" x="42" y="114.792">rightFront: DcMotorEx</text><ellipse cx="33" cy="127.7422" fill="none" rx="3" ry="3" style="stroke:#038048;stroke-width:1.0;"/><text fill="#000000" font-family="sans-serif" font-size="14" lengthAdjust="spacing" textLength="137" x="42" y="131.0889">leftRear: DcMotorEx</text><ellipse cx="33" cy="144.0391" fill="none" rx="3" ry="3" style="stroke:#038048;stroke-width:1.0;"/><text fill="#000000" font-family="sans-serif" font-size="14" lengthAdjust="spacing" textLength="147" x="42" y="147.3857">rightRear: DcMotorEx</text><line style="stroke:#181818;stroke-width:0.5;" x1="23" x2="261" y1="154.6875" y2="154.6875"/><ellipse cx="33" cy="168.3359" fill="#84BE84" rx="3" ry="3" style="stroke:#038048;stroke-width:1.0;"/><text fill="#000000" font-family="sans-serif" font-size="14" lengthAdjust="spacing" textLength="214" x="42" y="171.6826">HWC(HardwareMap, Telemetry)</text></g></a><text fill="#888888" font-family="sans-serif" font-size="10" lengthAdjust="spacing" textLength="186" x="186" y="218.2822">UMLDoclet 2.1.0, PlantUML 1.2022.14</text><!--SRC=[XP31QW8n443lViLS2YkLqFRerLKiL11HUX0FsUni34qoosIqBQN_tYmLgHPr3ZCmUPbC7W10r05Jgmq2iLMDuoGkfjOn9jM8KO8w6AeHldezE8JnEYLOK4Koej1In2W9rkkpZjfAy9jDlWb_ujwYB9rvItFa4YqZ5lqXrBIhFFu7DUTy2KX7uFSqOtjozIdaec4CUP_RQA0zhfABTlvS5XS88HvvIZYEjBFRmaN9O4NaKSSZ-ttkQlewodvolk34OoCJfYX3ACsiUsJySKgmiziRI3TaWPglpxXAv0sBgURwNJFET3k09VeiJ_YpV_wvGp7PB38qH5rPpLvACXu5djIZUXZ0tEiekGjtU-JaA1Rz7m00]--></g></svg>