<?xml version="1.0" encoding="UTF-8" standalone="no"?><svg xmlns="http://www.w3.org/2000/svg" xmlns:xlink="http://www.w3.org/1999/xlink" contentStyleType="text/css" height="432px" preserveAspectRatio="none" style="width:384px;height:432px;background:#FFFFFF;" version="1.1" viewBox="0 0 384 432" width="384px" zoomAndPan="magnify"><defs/><g><!--cluster org.firstinspires.ftc.teamcode.teleop--><g id="cluster_org.firstinspires.ftc.teamcode.teleop"><path d="M50.5,243 L342.5,243 A3.75,3.75 0 0 1 345,245.5 L352,265.2969 L352.5,265.2969 A2.5,2.5 0 0 1 355,267.7969 L355,404.5 A2.5,2.5 0 0 1 352.5,407 L50.5,407 A2.5,2.5 0 0 1 48,404.5 L48,245.5 A2.5,2.5 0 0 1 50.5,243 " fill="none" style="stroke:#000000;stroke-width:1.5;"/><line style="stroke:#000000;stroke-width:1.5;" x1="48" x2="352" y1="265.2969" y2="265.2969"/><text fill="#000000" font-family="sans-serif" font-size="14" font-weight="bold" lengthAdjust="spacing" textLength="291" x="52" y="257.9951">org.firstinspires.ftc.teamcode.teleop</text></g><!--cluster com.qualcomm.robotcore.eventloop.opmode--><g id="cluster_com.qualcomm.robotcore.eventloop.opmode"><path d="M8.5,6 L364.5,6 A3.75,3.75 0 0 1 367,8.5 L374,28.2969 L374.5,28.2969 A2.5,2.5 0 0 1 377,30.7969 L377,216.5 A2.5,2.5 0 0 1 374.5,219 L8.5,219 A2.5,2.5 0 0 1 6,216.5 L6,8.5 A2.5,2.5 0 0 1 8.5,6 " fill="none" style="stroke:#000000;stroke-width:1.5;"/><line style="stroke:#000000;stroke-width:1.5;" x1="6" x2="374" y1="28.2969" y2="28.2969"/><text fill="#000000" font-family="sans-serif" font-size="14" font-weight="bold" lengthAdjust="spacing" textLength="355" x="10" y="20.9951">com.qualcomm.robotcore.eventloop.opmode</text></g><!--class org.firstinspires.ftc.teamcode.teleop.StrafeDrive--><a href="StrafeDrive.html" target="_top" title="StrafeDrive.html" xlink:actuate="onRequest" xlink:href="StrafeDrive.html" xlink:show="new" xlink:title="StrafeDrive.html" xlink:type="simple"><g id="elem_org.firstinspires.ftc.teamcode.teleop.StrafeDrive"><rect codeLine="3" fill="#F1F1F1" height="113.1875" id="org.firstinspires.ftc.teamcode.teleop.StrafeDrive" rx="2.5" ry="2.5" style="stroke:#181818;stroke-width:0.5;" width="130" x="84" y="278"/><ellipse cx="109.35" cy="294" fill="#ADD1B2" rx="11" ry="11" style="stroke:#181818;stroke-width:1.0;"/><path d="M112.3188,299.6406 Q111.7406,299.9375 111.1,300.0781 Q110.4594,300.2344 109.7563,300.2344 Q107.2563,300.2344 105.9281,298.5938 Q104.6156,296.9375 104.6156,293.8125 Q104.6156,290.6875 105.9281,289.0313 Q107.2563,287.375 109.7563,287.375 Q110.4594,287.375 111.1,287.5313 Q111.7563,287.6875 112.3188,287.9844 L112.3188,290.7031 Q111.6938,290.125 111.1,289.8594 Q110.5063,289.5781 109.8813,289.5781 Q108.5375,289.5781 107.85,290.6563 Q107.1625,291.7188 107.1625,293.8125 Q107.1625,295.9063 107.85,296.9844 Q108.5375,298.0469 109.8813,298.0469 Q110.5063,298.0469 111.1,297.7813 Q111.6938,297.5 112.3188,296.9219 L112.3188,299.6406 Z " fill="#000000"/><text fill="#000000" font-family="sans-serif" font-size="14" lengthAdjust="spacing" textLength="75" x="125.65" y="298.8467">StrafeDrive</text><line style="stroke:#181818;stroke-width:0.5;" x1="85" x2="213" y1="310" y2="310"/><line style="stroke:#181818;stroke-width:0.5;" x1="85" x2="213" y1="318" y2="318"/><ellipse cx="95" cy="331.6484" fill="#84BE84" rx="3" ry="3" style="stroke:#038048;stroke-width:1.0;"/><text fill="#000000" font-family="sans-serif" font-size="14" lengthAdjust="spacing" textLength="67" x="104" y="334.9951">init(): void</text><ellipse cx="95" cy="347.9453" fill="#84BE84" rx="3" ry="3" style="stroke:#038048;stroke-width:1.0;"/><text fill="#000000" font-family="sans-serif" font-size="14" lengthAdjust="spacing" textLength="104" x="104" y="351.292">init_loop(): void</text><ellipse cx="95" cy="364.2422" fill="#84BE84" rx="3" ry="3" style="stroke:#038048;stroke-width:1.0;"/><text fill="#000000" font-family="sans-serif" font-size="14" lengthAdjust="spacing" textLength="78" x="104" y="367.5889">start(): void</text><ellipse cx="95" cy="380.5391" fill="#84BE84" rx="3" ry="3" style="stroke:#038048;stroke-width:1.0;"/><text fill="#000000" font-family="sans-serif" font-size="14" lengthAdjust="spacing" textLength="77" x="104" y="383.8857">loop(): void</text></g></a><!--class com.qualcomm.robotcore.eventloop.opmode.OpMode--><g id="elem_com.qualcomm.robotcore.eventloop.opmode.OpMode"><rect codeLine="14" fill="#F1F1F1" height="162.0781" id="com.qualcomm.robotcore.eventloop.opmode.OpMode" rx="2.5" ry="2.5" style="stroke:#181818;stroke-width:0.5;" width="213" x="42.5" y="41"/><ellipse cx="115.25" cy="57" fill="#A9DCDF" rx="11" ry="11" style="stroke:#181818;stroke-width:1.0;"/><path d="M115.3594,52.3438 L114.2031,57.4219 L116.5313,57.4219 L115.3594,52.3438 Z M113.875,50.1094 L116.8594,50.1094 L120.2188,62.5 L117.7656,62.5 L117,59.4375 L113.7188,59.4375 L112.9688,62.5 L110.5313,62.5 L113.875,50.1094 Z " fill="#000000"/><text fill="#000000" font-family="sans-serif" font-size="14" font-style="italic" lengthAdjust="spacing" textLength="59" x="135.75" y="61.8467">OpMode</text><line style="stroke:#181818;stroke-width:0.5;" x1="43.5" x2="254.5" y1="73" y2="73"/><ellipse cx="53.5" cy="86.6484" fill="none" rx="3" ry="3" style="stroke:#038048;stroke-width:1.0;"/><text fill="#000000" font-family="sans-serif" font-size="14" lengthAdjust="spacing" textLength="87" x="62.5" y="89.9951">time: double</text><ellipse cx="53.5" cy="102.9453" fill="none" rx="3" ry="3" style="stroke:#038048;stroke-width:1.0;"/><text fill="#000000" font-family="sans-serif" font-size="14" lengthAdjust="spacing" text-decoration="line-through" textLength="127" x="62.5" y="106.292">msStuckDetectInit</text><text fill="#000000" font-family="sans-serif" font-size="14" lengthAdjust="spacing" textLength="26" x="189.5" y="106.292">: int</text><ellipse cx="53.5" cy="119.2422" fill="none" rx="3" ry="3" style="stroke:#038048;stroke-width:1.0;"/><text fill="#000000" font-family="sans-serif" font-size="14" lengthAdjust="spacing" text-decoration="line-through" textLength="161" x="62.5" y="122.5889">msStuckDetectInitLoop</text><text fill="#000000" font-family="sans-serif" font-size="14" lengthAdjust="spacing" textLength="26" x="223.5" y="122.5889">: int</text><ellipse cx="53.5" cy="135.5391" fill="none" rx="3" ry="3" style="stroke:#038048;stroke-width:1.0;"/><text fill="#000000" font-family="sans-serif" font-size="14" lengthAdjust="spacing" text-decoration="line-through" textLength="139" x="62.5" y="138.8857">msStuckDetectStart</text><text fill="#000000" font-family="sans-serif" font-size="14" lengthAdjust="spacing" textLength="26" x="201.5" y="138.8857">: int</text><ellipse cx="53.5" cy="151.8359" fill="none" rx="3" ry="3" style="stroke:#038048;stroke-width:1.0;"/><text fill="#000000" font-family="sans-serif" font-size="14" lengthAdjust="spacing" text-decoration="line-through" textLength="141" x="62.5" y="155.1826">msStuckDetectLoop</text><text fill="#000000" font-family="sans-serif" font-size="14" lengthAdjust="spacing" textLength="26" x="203.5" y="155.1826">: int</text><line style="stroke:#181818;stroke-width:0.5;" x1="43.5" x2="254.5" y1="162.4844" y2="162.4844"/><ellipse cx="53.5" cy="176.1328" fill="#84BE84" rx="3" ry="3" style="stroke:#038048;stroke-width:1.0;"/><text fill="#000000" font-family="sans-serif" font-size="14" font-style="italic" lengthAdjust="spacing" textLength="68" x="62.5" y="179.4795">init(): void</text><ellipse cx="53.5" cy="192.4297" fill="#84BE84" rx="3" ry="3" style="stroke:#038048;stroke-width:1.0;"/><text fill="#000000" font-family="sans-serif" font-size="14" font-style="italic" lengthAdjust="spacing" textLength="78" x="62.5" y="195.7764">loop(): void</text></g><!--reverse link com.qualcomm.robotcore.eventloop.opmode.OpMode to org.firstinspires.ftc.teamcode.teleop.StrafeDrive--><g id="link_com.qualcomm.robotcore.eventloop.opmode.OpMode_org.firstinspires.ftc.teamcode.teleop.StrafeDrive"><path codeLine="10" d="M149,223.3 C149,242.02 149,260.95 149,277.72 " fill="none" id="com.qualcomm.robotcore.eventloop.opmode.OpMode-backto-org.firstinspires.ftc.teamcode.teleop.StrafeDrive" style="stroke:#181818;stroke-width:1.0;"/><polygon fill="none" points="142,223.18,149,203.18,156,223.18,142,223.18" style="stroke:#181818;stroke-width:1.0;"/></g><text fill="#888888" font-family="sans-serif" font-size="10" lengthAdjust="spacing" textLength="186" x="92" y="422.2822">UMLDoclet 2.1.0, PlantUML 1.2022.14</text><!--SRC=[ZL71JiCm3BttAtn1sWIDW6F5iHUaJI1LdAO9fQax8fAu96ulO_zEAXKHO8NwuYH-xyL-1W1mqcBef48WVn2jze6r2vts64JBIZ1AgwZ1U3187Hop3APGHeO05NlPOkdrWB3R9JVnmjRizv41ILngftcrBc0WtVokF1kYxdmviFGppBEaKz8fMV7MInEp5PvgOaKU1GxeUEGAwkmuuqEtZGdktlCydIjBvBxyMYYQp2_h44KLJyvDl_tmXxN50XhgQuFVAtbkGyMzUYsHKV5zj2lF2z2E_yLjOZzBiDNeyHBWdE3nSyRJ7vjEGJEhInnNqK_qq1ADwMcxAKaPPBWLD-Bw2XwDT1nVuM907pIvrVe3]--></g></svg>